M48
;Layer_Color=9474304
;FILE_FORMAT=2:5
INCH,LZ
;TYPE=PLATED
T1F00S00C0.00787
T3F00S00C0.04331
%
T01
X0002224Y0002559
X0001772Y0005945
X0002224Y0012559
X0004272Y0010945
X0004724Y0017559
X0006772Y0015945
X0001772
X0002224Y0022559
X0004272Y0020945
X0001772Y0025945
X0002224Y0032559
X0001772Y0035945
X0002224Y0042559
X0001772Y0045945
X0002224Y0052559
X0014272Y0050945
X0020021Y0052651
X0019272Y0040945
X0019724Y0037559
X0016772Y0035945
X0014724Y0037559
X0014272Y0040945
X0011772Y0035945
X0014272Y0030945
X0019724Y0027559
X0021772Y0025945
X0022224Y0022559
X0024272Y0020945
X0027224Y0022559
X0029272Y0020945
X0032224Y0022559
X0031772Y0025945
X0026772
X0019272Y0020945
X0017224Y0022559
X0014272Y0020945
X0014724Y0017559
X0016772Y0015945
X0019724Y0017559
X0017224Y0002559
X0012224
X0007224
X0022224
X0027224
X0032224
X0037224
X0042224
X0047224
X0052224
X0050197Y0027559
X0041772Y0025945
X0042224Y0022559
X0039272Y0020945
X0042323Y0034449
X0041339Y0041339
X0042224Y0052559
X0033408Y0034252
X0062926Y0035486
X0068282Y0027928
X0072676Y0028702
X0078407Y0040021
X008563Y0041339
X0089864Y0041707
X0089567Y0050197
X008563Y0033465
X0096772Y0015945
X0097224Y0002559
X0092224
X0087224
X0082224
X0077224
X0072224
X0067224
X0062224
X0057224
X0102224
X0107224
X0112224
X0137224
X0142224
X0147224
X0152224
X0167224
X0172224
X0177224
X0182224
X0187224
X0192224
X0197224
X0202224
X0201772Y0015945
X0199724Y0017559
X0199272Y0020945
X0197224Y0022559
X0196772Y0025945
X0199724Y0027559
X0201772Y0025945
X0202224Y0022559
X0204272Y0020945
X0204724Y0017559
X0196772Y0015945
X0194724Y0017559
X0194272Y0020945
X0191772Y0015945
X0188976Y0026575
X0199272Y0030945
X0204272
X0204724Y0027559
X0195866Y0042323
X0184055Y0047441
X0180118Y004626
X0179272Y0040945
X0171772Y0045945
X0164272Y0040945
Y0050945
X0151172Y0039952
X0147891Y0041788
X0145669Y0035433
X0137738Y0042478
X0130801Y0038871
X0128937Y0035433
X0125838Y0043771
X0128937Y0048228
X0132382Y0049705
X01246Y005315
X0119095Y003937
X0114593Y0037966
X0117623Y0033569
X0120079Y0031496
X0135827Y0022638
X0132874Y0019685
X0062598Y0055315
X0061772Y0065945
X0070866Y0059055
X008563Y0062008
X0086772Y0085945
X0081772
X0076772
X0071772
X0066772
X0061772
X0056772
X0091772
X0096772
X0101772
X0106772
X0111772
X0116772
X0121772
X0126772
X0131772
Y0065945
X0136772
X0126969Y0067913
X0121849Y0055904
X0167323Y0057087
X0175197Y0056102
X0172577Y006069
X0181772Y0065945
X0186772
X0187224Y0062559
X0189272Y0060945
X0194724Y0067559
X0199724
X0204724
X0204272Y0070945
X0041772Y0065945
X0042224Y0062559
X0041772Y0055945
X0036772
X0033408Y0056299
X0032224Y0062559
X0031772Y0065945
X0029724Y0067559
X0029272Y0070945
X0027224Y0072559
X0024272Y0070945
X0022224Y0072559
X0019272Y0070945
X0017224Y0072559
X0014272Y0070945
X0012224Y0072559
X0011772Y0065945
X0014724Y0067559
X0016772Y0065945
X0019724Y0067559
X0021772Y0065945
X0024724Y0067559
X0026772Y0065945
X0034724Y0067559
X0036772Y0065945
X0034272Y0070945
X0032224Y0072559
X0031772Y0085945
X0026772
X0021772
X0016772
X0011772
X0006772
X0001772
X0002224Y0082559
X0004272Y0080945
X0001772Y0075945
X0002224Y0072559
X0004272Y0070945
X0004724Y0067559
X0001772Y0065945
Y0055945
X0014724Y0057559
X0016772Y0055945
X0019724Y0057559
X0036772Y0085945
X0041772
X0046772
X0051772
T03
X001Y001
X002
X003
X004
X005
X0008Y003
Y004
Y005
X008Y0053646
Y0034354
Y001
X009
X01
X011
X012
X013
X014
X015
X016
X017
X018
X019
X02
X0182Y0022
Y0032
X0172
Y0022
X0162
Y0032
X007Y001
X006
X006Y008
X007
X008
X009
X01
X011
X012
X013
X014
X015
X016
X017
X018
X019
X02
X005
X004
X003
X002
X001
X0008Y006
M30
