G04*
G04 #@! TF.GenerationSoftware,Altium Limited,Altium Designer,22.7.1 (60)*
G04*
G04 Layer_Color=16711935*
%FSLAX25Y25*%
%MOIN*%
G70*
G04*
G04 #@! TF.SameCoordinates,143699A1-5C46-47B9-B1A9-45083201A81C*
G04*
G04*
G04 #@! TF.FilePolarity,Negative*
G04*
G01*
G75*
%ADD30O,0.07087X0.08661*%
%ADD31C,0.07087*%
%ADD32O,0.08661X0.07087*%
G04:AMPARAMS|DCode=33|XSize=82.68mil|YSize=51.18mil|CornerRadius=16.14mil|HoleSize=0mil|Usage=FLASHONLY|Rotation=180.000|XOffset=0mil|YOffset=0mil|HoleType=Round|Shape=RoundedRectangle|*
%AMROUNDEDRECTD33*
21,1,0.08268,0.01890,0,0,180.0*
21,1,0.05039,0.05118,0,0,180.0*
1,1,0.03228,-0.02520,0.00945*
1,1,0.03228,0.02520,0.00945*
1,1,0.03228,0.02520,-0.00945*
1,1,0.03228,-0.02520,-0.00945*
%
%ADD33ROUNDEDRECTD33*%
%ADD34R,0.07087X0.08661*%
%ADD35R,0.08661X0.07087*%
%ADD36C,0.03587*%
%ADD37C,0.02787*%
%ADD38C,0.03150*%
%ADD55R,0.03543X0.05906*%
%ADD56R,0.05906X0.04331*%
%ADD57R,0.04331X0.05906*%
%ADD58R,0.05906X0.03543*%
%ADD59R,0.14567X0.09449*%
%ADD60R,0.03150X0.09449*%
D30*
X120000Y80000D02*
D03*
X40000Y10000D02*
D03*
X30000D02*
D03*
X20000D02*
D03*
X170000Y80000D02*
D03*
X180000D02*
D03*
X190000D02*
D03*
X200000D02*
D03*
X160000Y10000D02*
D03*
X150000D02*
D03*
X40000Y80000D02*
D03*
X50000D02*
D03*
X60000D02*
D03*
X70000D02*
D03*
X80000D02*
D03*
X90000D02*
D03*
X100000D02*
D03*
X140000Y10000D02*
D03*
X130000D02*
D03*
X110000Y80000D02*
D03*
X130000D02*
D03*
X140000D02*
D03*
X150000D02*
D03*
X160000D02*
D03*
X120000Y10000D02*
D03*
X110000D02*
D03*
X100000D02*
D03*
X90000D02*
D03*
X80000D02*
D03*
X70000D02*
D03*
X60000D02*
D03*
X50000D02*
D03*
X170000D02*
D03*
X200000D02*
D03*
X190000D02*
D03*
X182000Y32000D02*
D03*
Y22000D02*
D03*
X20000Y80000D02*
D03*
X172000Y32000D02*
D03*
Y22000D02*
D03*
X30000Y80000D02*
D03*
X162000Y32000D02*
D03*
X180000Y10000D02*
D03*
D31*
X80000Y34354D02*
D03*
Y53646D02*
D03*
D32*
X8000Y50000D02*
D03*
Y40000D02*
D03*
Y30000D02*
D03*
D33*
X204429Y62205D02*
D03*
Y36220D02*
D03*
D34*
X162000Y22000D02*
D03*
X10000Y80000D02*
D03*
X10000Y10000D02*
D03*
D35*
X8000Y60000D02*
D03*
D36*
X27224Y22559D02*
D03*
X29724Y67559D02*
D03*
X27224Y72559D02*
D03*
X32224Y2559D02*
D03*
Y22559D02*
D03*
Y62559D02*
D03*
X34724Y67559D02*
D03*
X32224Y72559D02*
D03*
X37224Y2559D02*
D03*
X42224D02*
D03*
Y22559D02*
D03*
Y52559D02*
D03*
Y62559D02*
D03*
X47224Y2559D02*
D03*
X52224D02*
D03*
X57224D02*
D03*
X62224D02*
D03*
X67224D02*
D03*
X72224D02*
D03*
X77224D02*
D03*
X82224D02*
D03*
X87224D02*
D03*
X92224D02*
D03*
X97224D02*
D03*
X102224D02*
D03*
X107224D02*
D03*
X112224D02*
D03*
X137224D02*
D03*
X142224D02*
D03*
X147224D02*
D03*
X152224D02*
D03*
X167224D02*
D03*
X202224Y22559D02*
D03*
X204724Y27559D02*
D03*
Y67559D02*
D03*
Y17559D02*
D03*
X202224Y2559D02*
D03*
X199724Y67559D02*
D03*
Y27559D02*
D03*
X197224Y22559D02*
D03*
X199724Y17559D02*
D03*
X197224Y2559D02*
D03*
X194724Y67559D02*
D03*
Y17559D02*
D03*
X192224Y2559D02*
D03*
X187224Y62559D02*
D03*
Y2559D02*
D03*
X182224D02*
D03*
X177224D02*
D03*
X172224D02*
D03*
X2224D02*
D03*
Y12559D02*
D03*
X4724Y17559D02*
D03*
X2224Y22559D02*
D03*
Y32559D02*
D03*
Y42559D02*
D03*
Y52559D02*
D03*
X4724Y67559D02*
D03*
X2224Y72559D02*
D03*
Y82559D02*
D03*
X7224Y2559D02*
D03*
X12224D02*
D03*
X14724Y17559D02*
D03*
Y37559D02*
D03*
Y57559D02*
D03*
Y67559D02*
D03*
X12224Y72559D02*
D03*
X17224Y2559D02*
D03*
X19724Y17559D02*
D03*
X17224Y22559D02*
D03*
X19724Y27559D02*
D03*
Y37559D02*
D03*
Y57559D02*
D03*
Y67559D02*
D03*
X17224Y72559D02*
D03*
X22224Y2559D02*
D03*
Y22559D02*
D03*
X24724Y67559D02*
D03*
X22224Y72559D02*
D03*
X27224Y2559D02*
D03*
D37*
X1772Y5945D02*
D03*
X4272Y10945D02*
D03*
X1772Y15945D02*
D03*
X4272Y20945D02*
D03*
X1772Y25945D02*
D03*
Y35945D02*
D03*
Y45945D02*
D03*
Y55945D02*
D03*
Y65945D02*
D03*
X4272Y70945D02*
D03*
X1772Y75945D02*
D03*
X4272Y80945D02*
D03*
X1772Y85945D02*
D03*
X6772Y15945D02*
D03*
Y85945D02*
D03*
X14272Y20945D02*
D03*
Y30945D02*
D03*
X11772Y35945D02*
D03*
X14272Y40945D02*
D03*
Y50945D02*
D03*
X11772Y65945D02*
D03*
X14272Y70945D02*
D03*
X11772Y85945D02*
D03*
X16772Y15945D02*
D03*
X19272Y20945D02*
D03*
X16772Y35945D02*
D03*
X19272Y40945D02*
D03*
X16772Y55945D02*
D03*
Y65945D02*
D03*
X19272Y70945D02*
D03*
X16772Y85945D02*
D03*
X24272Y20945D02*
D03*
X21772Y25945D02*
D03*
Y65945D02*
D03*
X24272Y70945D02*
D03*
X21772Y85945D02*
D03*
X29272Y20945D02*
D03*
X26772Y25945D02*
D03*
Y65945D02*
D03*
X29272Y70945D02*
D03*
X26772Y85945D02*
D03*
X31772Y25945D02*
D03*
Y65945D02*
D03*
X34272Y70945D02*
D03*
X31772Y85945D02*
D03*
X39272Y20945D02*
D03*
X36772Y55945D02*
D03*
Y65945D02*
D03*
Y85945D02*
D03*
X41772Y25945D02*
D03*
Y55945D02*
D03*
Y65945D02*
D03*
Y85945D02*
D03*
X46772D02*
D03*
X51772D02*
D03*
X56772D02*
D03*
X61772Y65945D02*
D03*
Y85945D02*
D03*
X66772D02*
D03*
X71772D02*
D03*
X76772D02*
D03*
X81772D02*
D03*
X86772D02*
D03*
X91772D02*
D03*
X96772Y15945D02*
D03*
Y85945D02*
D03*
X101772D02*
D03*
X106772D02*
D03*
X111772D02*
D03*
X116772D02*
D03*
X121772D02*
D03*
X126772D02*
D03*
X131772Y65945D02*
D03*
Y85945D02*
D03*
X136772Y65945D02*
D03*
X164272Y40945D02*
D03*
Y50945D02*
D03*
X171772Y45945D02*
D03*
X179272Y40945D02*
D03*
X181772Y65945D02*
D03*
X189272Y60945D02*
D03*
X186772Y65945D02*
D03*
X191772Y15945D02*
D03*
X194272Y20945D02*
D03*
X196772Y15945D02*
D03*
X199272Y20945D02*
D03*
X196772Y25945D02*
D03*
X199272Y30945D02*
D03*
X201772Y15945D02*
D03*
X204272Y20945D02*
D03*
X201772Y25945D02*
D03*
X204272Y30945D02*
D03*
Y70945D02*
D03*
D38*
X117623Y33569D02*
D03*
X119095Y39370D02*
D03*
D55*
X175787Y42323D02*
D03*
Y50197D02*
D03*
X168307D02*
D03*
Y42323D02*
D03*
X157240Y61500D02*
D03*
X144882Y30512D02*
D03*
Y21654D02*
D03*
X152362Y30512D02*
D03*
Y21654D02*
D03*
X149760Y61500D02*
D03*
D56*
X62992Y30799D02*
D03*
X142000Y62760D02*
D03*
X132000Y62520D02*
D03*
X122000Y62000D02*
D03*
X62992Y23319D02*
D03*
X122000Y69480D02*
D03*
X142000Y70240D02*
D03*
X132000Y70000D02*
D03*
D57*
X54421Y63976D02*
D03*
X97728Y34449D02*
D03*
X94760Y58000D02*
D03*
X158000Y70000D02*
D03*
X150520D02*
D03*
X46941Y63976D02*
D03*
X102240Y58000D02*
D03*
X54724Y54331D02*
D03*
X54331Y43307D02*
D03*
X90248Y34449D02*
D03*
X54028Y33465D02*
D03*
X53937Y22441D02*
D03*
X47244Y54331D02*
D03*
X46850Y43307D02*
D03*
X46547Y33465D02*
D03*
X46457Y22441D02*
D03*
D58*
X96000Y42260D02*
D03*
Y49740D02*
D03*
X37008Y30512D02*
D03*
X112000Y62260D02*
D03*
X37008Y37992D02*
D03*
Y52559D02*
D03*
Y60039D02*
D03*
X112000Y69740D02*
D03*
D59*
X116142Y46654D02*
D03*
D60*
Y22244D02*
D03*
X126142D02*
D03*
X121142D02*
D03*
X111142D02*
D03*
X106142D02*
D03*
M02*
