G04*
G04 #@! TF.GenerationSoftware,Altium Limited,Altium Designer,22.7.1 (60)*
G04*
G04 Layer_Color=255*
%FSLAX25Y25*%
%MOIN*%
G70*
G04*
G04 #@! TF.SameCoordinates,143699A1-5C46-47B9-B1A9-45083201A81C*
G04*
G04*
G04 #@! TF.FilePolarity,Positive*
G04*
G01*
G75*
%ADD14R,0.05315X0.01575*%
G04:AMPARAMS|DCode=15|XSize=11.81mil|YSize=47.24mil|CornerRadius=0mil|HoleSize=0mil|Usage=FLASHONLY|Rotation=135.000|XOffset=0mil|YOffset=0mil|HoleType=Round|Shape=Rectangle|*
%AMROTATEDRECTD15*
4,1,4,0.02088,0.01253,-0.01253,-0.02088,-0.02088,-0.01253,0.01253,0.02088,0.02088,0.01253,0.0*
%
%ADD15ROTATEDRECTD15*%

%ADD16R,0.05512X0.02362*%
G04:AMPARAMS|DCode=17|XSize=11.81mil|YSize=47.24mil|CornerRadius=0mil|HoleSize=0mil|Usage=FLASHONLY|Rotation=45.000|XOffset=0mil|YOffset=0mil|HoleType=Round|Shape=Rectangle|*
%AMROTATEDRECTD17*
4,1,4,0.01253,-0.02088,-0.02088,0.01253,-0.01253,0.02088,0.02088,-0.01253,0.01253,-0.02088,0.0*
%
%ADD17ROTATEDRECTD17*%

%ADD18R,0.06299X0.05512*%
%ADD19R,0.04724X0.04724*%
%ADD20R,0.05512X0.06299*%
%ADD21R,0.07480X0.07480*%
D14*
X193898Y49213D02*
D03*
Y46654D02*
D03*
Y51772D02*
D03*
Y54331D02*
D03*
Y44094D02*
D03*
D15*
X132756Y57244D02*
D03*
X107702Y34973D02*
D03*
X106309Y36364D02*
D03*
X110485Y32189D02*
D03*
X109093Y33581D02*
D03*
X129973Y60027D02*
D03*
X104918Y37756D02*
D03*
X138324Y51676D02*
D03*
X139716Y50284D02*
D03*
X141108Y48892D02*
D03*
X142500Y47500D02*
D03*
X131365Y58635D02*
D03*
X134148Y55852D02*
D03*
X135540Y54460D02*
D03*
X136932Y53068D02*
D03*
X118837Y23837D02*
D03*
X117445Y25229D02*
D03*
X116053Y26621D02*
D03*
X111877Y30797D02*
D03*
X128581Y61419D02*
D03*
X113269Y29405D02*
D03*
X127189Y62811D02*
D03*
X103526Y39148D02*
D03*
X114661Y28013D02*
D03*
D16*
X62992Y41732D02*
D03*
Y51181D02*
D03*
D17*
X118837Y62811D02*
D03*
X139716Y36364D02*
D03*
X138324Y34973D02*
D03*
X106309Y50284D02*
D03*
X107702Y51676D02*
D03*
X110485Y54460D02*
D03*
X111877Y55852D02*
D03*
X113269Y57244D02*
D03*
X114661Y58635D02*
D03*
X116053Y60027D02*
D03*
X135540Y32189D02*
D03*
X134148Y30797D02*
D03*
X117445Y61419D02*
D03*
X132756Y29405D02*
D03*
X131365Y28013D02*
D03*
X129973Y26621D02*
D03*
X128581Y25229D02*
D03*
X127189Y23837D02*
D03*
X136932Y33581D02*
D03*
X109093Y53068D02*
D03*
X104918Y48892D02*
D03*
X141108Y37756D02*
D03*
X142500Y39148D02*
D03*
X103526Y47500D02*
D03*
D18*
X186024Y54134D02*
D03*
X157677D02*
D03*
X186024Y42323D02*
D03*
X157677D02*
D03*
D19*
X27165Y31299D02*
D03*
X27559Y52165D02*
D03*
Y60433D02*
D03*
X27165Y39567D02*
D03*
D20*
X194783Y61811D02*
D03*
Y36614D02*
D03*
D21*
X204429Y53937D02*
D03*
Y44488D02*
D03*
M02*
