G04*
G04 #@! TF.GenerationSoftware,Altium Limited,Altium Designer,22.7.1 (60)*
G04*
G04 Layer_Color=8388736*
%FSLAX25Y25*%
%MOIN*%
G70*
G04*
G04 #@! TF.SameCoordinates,143699A1-5C46-47B9-B1A9-45083201A81C*
G04*
G04*
G04 #@! TF.FilePolarity,Negative*
G04*
G01*
G75*
%ADD22R,0.05709X0.01968*%
G04:AMPARAMS|DCode=23|XSize=15.75mil|YSize=51.18mil|CornerRadius=0mil|HoleSize=0mil|Usage=FLASHONLY|Rotation=135.000|XOffset=0mil|YOffset=0mil|HoleType=Round|Shape=Rectangle|*
%AMROTATEDRECTD23*
4,1,4,0.02366,0.01253,-0.01253,-0.02366,-0.02366,-0.01253,0.01253,0.02366,0.02366,0.01253,0.0*
%
%ADD23ROTATEDRECTD23*%

%ADD24R,0.06299X0.03150*%
G04:AMPARAMS|DCode=25|XSize=15.75mil|YSize=51.18mil|CornerRadius=0mil|HoleSize=0mil|Usage=FLASHONLY|Rotation=45.000|XOffset=0mil|YOffset=0mil|HoleType=Round|Shape=Rectangle|*
%AMROTATEDRECTD25*
4,1,4,0.01253,-0.02366,-0.02366,0.01253,-0.01253,0.02366,0.02366,-0.01253,0.01253,-0.02366,0.0*
%
%ADD25ROTATEDRECTD25*%

%ADD26R,0.07087X0.06299*%
%ADD27R,0.05512X0.05512*%
%ADD28R,0.06299X0.07087*%
%ADD29R,0.08268X0.08268*%
%ADD30O,0.07087X0.08661*%
%ADD31C,0.07087*%
%ADD32O,0.08661X0.07087*%
G04:AMPARAMS|DCode=33|XSize=82.68mil|YSize=51.18mil|CornerRadius=16.14mil|HoleSize=0mil|Usage=FLASHONLY|Rotation=180.000|XOffset=0mil|YOffset=0mil|HoleType=Round|Shape=RoundedRectangle|*
%AMROUNDEDRECTD33*
21,1,0.08268,0.01890,0,0,180.0*
21,1,0.05039,0.05118,0,0,180.0*
1,1,0.03228,-0.02520,0.00945*
1,1,0.03228,0.02520,0.00945*
1,1,0.03228,0.02520,-0.00945*
1,1,0.03228,-0.02520,-0.00945*
%
%ADD33ROUNDEDRECTD33*%
%ADD34R,0.07087X0.08661*%
%ADD35R,0.08661X0.07087*%
%ADD36C,0.03587*%
%ADD37C,0.02787*%
%ADD38C,0.03150*%
D22*
X193898Y49213D02*
D03*
Y46654D02*
D03*
Y51772D02*
D03*
Y54331D02*
D03*
Y44094D02*
D03*
D23*
X132756Y57244D02*
D03*
X107702Y34973D02*
D03*
X106309Y36364D02*
D03*
X110485Y32189D02*
D03*
X109093Y33581D02*
D03*
X129973Y60027D02*
D03*
X104918Y37756D02*
D03*
X138324Y51676D02*
D03*
X139716Y50284D02*
D03*
X141108Y48892D02*
D03*
X142500Y47500D02*
D03*
X131365Y58635D02*
D03*
X134148Y55852D02*
D03*
X135540Y54460D02*
D03*
X136932Y53068D02*
D03*
X118837Y23837D02*
D03*
X117445Y25229D02*
D03*
X116053Y26621D02*
D03*
X111877Y30797D02*
D03*
X128581Y61419D02*
D03*
X113269Y29405D02*
D03*
X127189Y62811D02*
D03*
X103526Y39148D02*
D03*
X114661Y28013D02*
D03*
D24*
X62992Y41732D02*
D03*
Y51181D02*
D03*
D25*
X118837Y62811D02*
D03*
X139716Y36364D02*
D03*
X138324Y34973D02*
D03*
X106309Y50284D02*
D03*
X107702Y51676D02*
D03*
X110485Y54460D02*
D03*
X111877Y55852D02*
D03*
X113269Y57244D02*
D03*
X114661Y58635D02*
D03*
X116053Y60027D02*
D03*
X135540Y32189D02*
D03*
X134148Y30797D02*
D03*
X117445Y61419D02*
D03*
X132756Y29405D02*
D03*
X131365Y28013D02*
D03*
X129973Y26621D02*
D03*
X128581Y25229D02*
D03*
X127189Y23837D02*
D03*
X136932Y33581D02*
D03*
X109093Y53068D02*
D03*
X104918Y48892D02*
D03*
X141108Y37756D02*
D03*
X142500Y39148D02*
D03*
X103526Y47500D02*
D03*
D26*
X186024Y54134D02*
D03*
X157677D02*
D03*
X186024Y42323D02*
D03*
X157677D02*
D03*
D27*
X27165Y31299D02*
D03*
X27559Y52165D02*
D03*
Y60433D02*
D03*
X27165Y39567D02*
D03*
D28*
X194783Y61811D02*
D03*
Y36614D02*
D03*
D29*
X204429Y53937D02*
D03*
Y44488D02*
D03*
D30*
X120000Y80000D02*
D03*
X40000Y10000D02*
D03*
X30000D02*
D03*
X20000D02*
D03*
X170000Y80000D02*
D03*
X180000D02*
D03*
X190000D02*
D03*
X200000D02*
D03*
X160000Y10000D02*
D03*
X150000D02*
D03*
X40000Y80000D02*
D03*
X50000D02*
D03*
X60000D02*
D03*
X70000D02*
D03*
X80000D02*
D03*
X90000D02*
D03*
X100000D02*
D03*
X140000Y10000D02*
D03*
X130000D02*
D03*
X110000Y80000D02*
D03*
X130000D02*
D03*
X140000D02*
D03*
X150000D02*
D03*
X160000D02*
D03*
X120000Y10000D02*
D03*
X110000D02*
D03*
X100000D02*
D03*
X90000D02*
D03*
X80000D02*
D03*
X70000D02*
D03*
X60000D02*
D03*
X50000D02*
D03*
X170000D02*
D03*
X200000D02*
D03*
X190000D02*
D03*
X182000Y32000D02*
D03*
Y22000D02*
D03*
X20000Y80000D02*
D03*
X172000Y32000D02*
D03*
Y22000D02*
D03*
X30000Y80000D02*
D03*
X162000Y32000D02*
D03*
X180000Y10000D02*
D03*
D31*
X80000Y34354D02*
D03*
Y53646D02*
D03*
D32*
X8000Y50000D02*
D03*
Y40000D02*
D03*
Y30000D02*
D03*
D33*
X204429Y62205D02*
D03*
Y36220D02*
D03*
D34*
X162000Y22000D02*
D03*
X10000Y80000D02*
D03*
X10000Y10000D02*
D03*
D35*
X8000Y60000D02*
D03*
D36*
X27224Y22559D02*
D03*
X29724Y67559D02*
D03*
X27224Y72559D02*
D03*
X32224Y2559D02*
D03*
Y22559D02*
D03*
Y62559D02*
D03*
X34724Y67559D02*
D03*
X32224Y72559D02*
D03*
X37224Y2559D02*
D03*
X42224D02*
D03*
Y22559D02*
D03*
Y52559D02*
D03*
Y62559D02*
D03*
X47224Y2559D02*
D03*
X52224D02*
D03*
X57224D02*
D03*
X62224D02*
D03*
X67224D02*
D03*
X72224D02*
D03*
X77224D02*
D03*
X82224D02*
D03*
X87224D02*
D03*
X92224D02*
D03*
X97224D02*
D03*
X102224D02*
D03*
X107224D02*
D03*
X112224D02*
D03*
X137224D02*
D03*
X142224D02*
D03*
X147224D02*
D03*
X152224D02*
D03*
X167224D02*
D03*
X202224Y22559D02*
D03*
X204724Y27559D02*
D03*
Y67559D02*
D03*
Y17559D02*
D03*
X202224Y2559D02*
D03*
X199724Y67559D02*
D03*
Y27559D02*
D03*
X197224Y22559D02*
D03*
X199724Y17559D02*
D03*
X197224Y2559D02*
D03*
X194724Y67559D02*
D03*
Y17559D02*
D03*
X192224Y2559D02*
D03*
X187224Y62559D02*
D03*
Y2559D02*
D03*
X182224D02*
D03*
X177224D02*
D03*
X172224D02*
D03*
X2224D02*
D03*
Y12559D02*
D03*
X4724Y17559D02*
D03*
X2224Y22559D02*
D03*
Y32559D02*
D03*
Y42559D02*
D03*
Y52559D02*
D03*
X4724Y67559D02*
D03*
X2224Y72559D02*
D03*
Y82559D02*
D03*
X7224Y2559D02*
D03*
X12224D02*
D03*
X14724Y17559D02*
D03*
Y37559D02*
D03*
Y57559D02*
D03*
Y67559D02*
D03*
X12224Y72559D02*
D03*
X17224Y2559D02*
D03*
X19724Y17559D02*
D03*
X17224Y22559D02*
D03*
X19724Y27559D02*
D03*
Y37559D02*
D03*
Y57559D02*
D03*
Y67559D02*
D03*
X17224Y72559D02*
D03*
X22224Y2559D02*
D03*
Y22559D02*
D03*
X24724Y67559D02*
D03*
X22224Y72559D02*
D03*
X27224Y2559D02*
D03*
D37*
X1772Y5945D02*
D03*
X4272Y10945D02*
D03*
X1772Y15945D02*
D03*
X4272Y20945D02*
D03*
X1772Y25945D02*
D03*
Y35945D02*
D03*
Y45945D02*
D03*
Y55945D02*
D03*
Y65945D02*
D03*
X4272Y70945D02*
D03*
X1772Y75945D02*
D03*
X4272Y80945D02*
D03*
X1772Y85945D02*
D03*
X6772Y15945D02*
D03*
Y85945D02*
D03*
X14272Y20945D02*
D03*
Y30945D02*
D03*
X11772Y35945D02*
D03*
X14272Y40945D02*
D03*
Y50945D02*
D03*
X11772Y65945D02*
D03*
X14272Y70945D02*
D03*
X11772Y85945D02*
D03*
X16772Y15945D02*
D03*
X19272Y20945D02*
D03*
X16772Y35945D02*
D03*
X19272Y40945D02*
D03*
X16772Y55945D02*
D03*
Y65945D02*
D03*
X19272Y70945D02*
D03*
X16772Y85945D02*
D03*
X24272Y20945D02*
D03*
X21772Y25945D02*
D03*
Y65945D02*
D03*
X24272Y70945D02*
D03*
X21772Y85945D02*
D03*
X29272Y20945D02*
D03*
X26772Y25945D02*
D03*
Y65945D02*
D03*
X29272Y70945D02*
D03*
X26772Y85945D02*
D03*
X31772Y25945D02*
D03*
Y65945D02*
D03*
X34272Y70945D02*
D03*
X31772Y85945D02*
D03*
X39272Y20945D02*
D03*
X36772Y55945D02*
D03*
Y65945D02*
D03*
Y85945D02*
D03*
X41772Y25945D02*
D03*
Y55945D02*
D03*
Y65945D02*
D03*
Y85945D02*
D03*
X46772D02*
D03*
X51772D02*
D03*
X56772D02*
D03*
X61772Y65945D02*
D03*
Y85945D02*
D03*
X66772D02*
D03*
X71772D02*
D03*
X76772D02*
D03*
X81772D02*
D03*
X86772D02*
D03*
X91772D02*
D03*
X96772Y15945D02*
D03*
Y85945D02*
D03*
X101772D02*
D03*
X106772D02*
D03*
X111772D02*
D03*
X116772D02*
D03*
X121772D02*
D03*
X126772D02*
D03*
X131772Y65945D02*
D03*
Y85945D02*
D03*
X136772Y65945D02*
D03*
X164272Y40945D02*
D03*
Y50945D02*
D03*
X171772Y45945D02*
D03*
X179272Y40945D02*
D03*
X181772Y65945D02*
D03*
X189272Y60945D02*
D03*
X186772Y65945D02*
D03*
X191772Y15945D02*
D03*
X194272Y20945D02*
D03*
X196772Y15945D02*
D03*
X199272Y20945D02*
D03*
X196772Y25945D02*
D03*
X199272Y30945D02*
D03*
X201772Y15945D02*
D03*
X204272Y20945D02*
D03*
X201772Y25945D02*
D03*
X204272Y30945D02*
D03*
Y70945D02*
D03*
D38*
X117623Y33569D02*
D03*
X119095Y39370D02*
D03*
M02*
