G04*
G04 #@! TF.GenerationSoftware,Altium Limited,Altium Designer,22.7.1 (60)*
G04*
G04 Layer_Color=128*
%FSLAX25Y25*%
%MOIN*%
G70*
G04*
G04 #@! TF.SameCoordinates,143699A1-5C46-47B9-B1A9-45083201A81C*
G04*
G04*
G04 #@! TF.FilePolarity,Positive*
G04*
G01*
G75*
%ADD49R,0.02756X0.05118*%
%ADD50R,0.05118X0.03543*%
%ADD51R,0.03543X0.05118*%
%ADD52R,0.05118X0.02756*%
%ADD53R,0.13780X0.08661*%
%ADD54R,0.02362X0.08661*%
D49*
X175787Y42323D02*
D03*
Y50197D02*
D03*
X168307D02*
D03*
Y42323D02*
D03*
X157240Y61500D02*
D03*
X144882Y30512D02*
D03*
Y21654D02*
D03*
X152362Y30512D02*
D03*
Y21654D02*
D03*
X149760Y61500D02*
D03*
D50*
X62992Y30799D02*
D03*
X142000Y62760D02*
D03*
X132000Y62520D02*
D03*
X122000Y62000D02*
D03*
X62992Y23319D02*
D03*
X122000Y69480D02*
D03*
X142000Y70240D02*
D03*
X132000Y70000D02*
D03*
D51*
X54421Y63976D02*
D03*
X97728Y34449D02*
D03*
X94760Y58000D02*
D03*
X158000Y70000D02*
D03*
X150520D02*
D03*
X46941Y63976D02*
D03*
X102240Y58000D02*
D03*
X54724Y54331D02*
D03*
X54331Y43307D02*
D03*
X90248Y34449D02*
D03*
X54028Y33465D02*
D03*
X53937Y22441D02*
D03*
X47244Y54331D02*
D03*
X46850Y43307D02*
D03*
X46547Y33465D02*
D03*
X46457Y22441D02*
D03*
D52*
X96000Y42260D02*
D03*
Y49740D02*
D03*
X37008Y30512D02*
D03*
X112000Y62260D02*
D03*
X37008Y37992D02*
D03*
Y52559D02*
D03*
Y60039D02*
D03*
X112000Y69740D02*
D03*
D53*
X116142Y46654D02*
D03*
D54*
Y22244D02*
D03*
X126142D02*
D03*
X121142D02*
D03*
X111142D02*
D03*
X106142D02*
D03*
M02*
